<svg xmlns="http://www.w3.org/2000/svg" xmlns:xlink="http://www.w3.org/1999/xlink" xmlns:inkscape="http://www.inkscape.org/namespaces/inkscape" version="1.1" width="70%" height="auto" viewBox="0 0 181.657 153.311" style="display: block; margin: 0 auto;">
<path transform="matrix(1,0,0,-1,19.963,133.348)" stroke-width=".3985" stroke-linecap="butt" stroke-miterlimit="10" stroke-linejoin="miter" fill="none" stroke="#000000" d="M19.76353 113.38724C19.76353 124.30246 10.91522 133.15077 0 133.15077-10.91522 133.15077-19.76353 124.30246-19.76353 113.38724-19.76353 102.472-10.91522 93.62369 0 93.62369 10.91522 93.62369 19.76353 102.472 19.76353 113.38724ZM0 113.38724"/>
<text xml:space="preserve" transform="matrix(1 0 -0 1 -.0000009536743 153.311)" font-size="9.9626" font-family="CMR10"><tspan y="-130.858" x="5.295 8.064603">[1</tspan></text>
<text xml:space="preserve" transform="matrix(1 0 -0 1 -.0000009536743 153.311)" font-size="9.9626" font-family="CMMI10" font-style="italic"><tspan y="-130.858" x="13.044001">,</tspan></text>
<text xml:space="preserve" transform="matrix(1 0 -0 1 -.0000009536743 153.311)" font-size="9.9626" font-family="CMR10"><tspan y="-130.858" x="17.472">2</tspan></text>
<text xml:space="preserve" transform="matrix(1 0 -0 1 -.0000009536743 153.311)" font-size="9.9626" font-family="CMMI10" font-style="italic"><tspan y="-130.858" x="22.453">,</tspan></text>
<text xml:space="preserve" transform="matrix(1 0 -0 1 -.0000009536743 153.311)" font-size="9.9626" font-family="CMR10"><tspan y="-130.858" x="26.880999 31.862299">3]</tspan></text>
<path transform="matrix(1,0,0,-1,19.963,133.348)" stroke-width=".3985" stroke-linecap="butt" stroke-miterlimit="10" stroke-linejoin="miter" fill="none" stroke="#000000" d="M19.76353 56.69362C19.76353 67.60884 10.91522 76.45715 0 76.45715-10.91522 76.45715-19.76353 67.60884-19.76353 56.69362-19.76353 45.77838-10.91522 36.93007 0 36.93007 10.91522 36.93007 19.76353 45.77838 19.76353 56.69362ZM0 56.69362"/>
<text xml:space="preserve" transform="matrix(1 0 -0 1 -.0000009536743 153.311)" font-size="9.9626" font-family="CMR10"><tspan y="-74.165" x="5.295 8.064603">[2</tspan></text>
<text xml:space="preserve" transform="matrix(1 0 -0 1 -.0000009536743 153.311)" font-size="9.9626" font-family="CMMI10" font-style="italic"><tspan y="-74.165" x="13.044001">,</tspan></text>
<text xml:space="preserve" transform="matrix(1 0 -0 1 -.0000009536743 153.311)" font-size="9.9626" font-family="CMR10"><tspan y="-74.165" x="17.472">3</tspan></text>
<text xml:space="preserve" transform="matrix(1 0 -0 1 -.0000009536743 153.311)" font-size="9.9626" font-family="CMMI10" font-style="italic"><tspan y="-74.165" x="22.453">,</tspan></text>
<text xml:space="preserve" transform="matrix(1 0 -0 1 -.0000009536743 153.311)" font-size="9.9626" font-family="CMR10"><tspan y="-74.165" x="26.880999 31.862299">1]</tspan></text>
<path transform="matrix(1,0,0,-1,19.963,133.348)" stroke-width=".3985" stroke-linecap="butt" stroke-miterlimit="10" stroke-linejoin="miter" fill="none" stroke="#000000" d="M19.76353 0C19.76353 10.91522 10.91522 19.76353 0 19.76353-10.91522 19.76353-19.76353 10.91522-19.76353 0-19.76353-10.91522-10.91522-19.76353 0-19.76353 10.91522-19.76353 19.76353-10.91522 19.76353 0ZM0 0"/>
<text xml:space="preserve" transform="matrix(1 0 -0 1 -.0000009536743 153.311)" font-size="9.9626" font-family="CMR10"><tspan y="-17.472" x="5.295 8.064603">[3</tspan></text>
<text xml:space="preserve" transform="matrix(1 0 -0 1 -.0000009536743 153.311)" font-size="9.9626" font-family="CMMI10" font-style="italic"><tspan y="-17.472" x="13.044001">,</tspan></text>
<text xml:space="preserve" transform="matrix(1 0 -0 1 -.0000009536743 153.311)" font-size="9.9626" font-family="CMR10"><tspan y="-17.472" x="17.472">1</tspan></text>
<text xml:space="preserve" transform="matrix(1 0 -0 1 -.0000009536743 153.311)" font-size="9.9626" font-family="CMMI10" font-style="italic"><tspan y="-17.472" x="22.453">,</tspan></text>
<text xml:space="preserve" transform="matrix(1 0 -0 1 -.0000009536743 153.311)" font-size="9.9626" font-family="CMR10"><tspan y="-17.472" x="26.880999 31.862299">2]</tspan></text>
<path transform="matrix(1,0,0,-1,19.963,133.348)" stroke-width=".3985" stroke-linecap="butt" stroke-miterlimit="10" stroke-linejoin="miter" fill="none" stroke="#000000" d="M161.49759 113.38724C161.49759 124.30246 152.64928 133.15077 141.73404 133.15077 130.8188 133.15077 121.97049 124.30246 121.97049 113.38724 121.97049 102.472 130.8188 93.62369 141.73404 93.62369 152.64928 93.62369 161.49759 102.472 161.49759 113.38724ZM141.73404 113.38724"/>
<text xml:space="preserve" transform="matrix(1 0 -0 1 0 153.311)" font-size="9.9626" font-family="CMR10"><tspan y="-130.858" x="147.028 149.7976">[3</tspan></text>
<text xml:space="preserve" transform="matrix(1 0 -0 1 0 153.311)" font-size="9.9626" font-family="CMMI10" font-style="italic"><tspan y="-130.858" x="154.776">,</tspan></text>
<text xml:space="preserve" transform="matrix(1 0 -0 1 0 153.311)" font-size="9.9626" font-family="CMR10"><tspan y="-130.858" x="159.204">2</tspan></text>
<text xml:space="preserve" transform="matrix(1 0 -0 1 0 153.311)" font-size="9.9626" font-family="CMMI10" font-style="italic"><tspan y="-130.858" x="164.185">,</tspan></text>
<text xml:space="preserve" transform="matrix(1 0 -0 1 0 153.311)" font-size="9.9626" font-family="CMR10"><tspan y="-130.858" x="168.61299 173.59429">1]</tspan></text>
<path transform="matrix(1,0,0,-1,19.963,133.348)" stroke-width=".3985" stroke-linecap="butt" stroke-miterlimit="10" stroke-linejoin="miter" fill="none" stroke="#000000" d="M161.49759 56.69362C161.49759 67.60884 152.64928 76.45715 141.73404 76.45715 130.8188 76.45715 121.97049 67.60884 121.97049 56.69362 121.97049 45.77838 130.8188 36.93007 141.73404 36.93007 152.64928 36.93007 161.49759 45.77838 161.49759 56.69362ZM141.73404 56.69362"/>
<text xml:space="preserve" transform="matrix(1 0 -0 1 0 153.311)" font-size="9.9626" font-family="CMR10"><tspan y="-74.165" x="147.028 149.7976">[2</tspan></text>
<text xml:space="preserve" transform="matrix(1 0 -0 1 0 153.311)" font-size="9.9626" font-family="CMMI10" font-style="italic"><tspan y="-74.165" x="154.776">,</tspan></text>
<text xml:space="preserve" transform="matrix(1 0 -0 1 0 153.311)" font-size="9.9626" font-family="CMR10"><tspan y="-74.165" x="159.204">1</tspan></text>
<text xml:space="preserve" transform="matrix(1 0 -0 1 0 153.311)" font-size="9.9626" font-family="CMMI10" font-style="italic"><tspan y="-74.165" x="164.185">,</tspan></text>
<text xml:space="preserve" transform="matrix(1 0 -0 1 0 153.311)" font-size="9.9626" font-family="CMR10"><tspan y="-74.165" x="168.61299 173.59429">3]</tspan></text>
<path transform="matrix(1,0,0,-1,19.963,133.348)" stroke-width=".3985" stroke-linecap="butt" stroke-miterlimit="10" stroke-linejoin="miter" fill="none" stroke="#000000" d="M161.49759 0C161.49759 10.91522 152.64928 19.76353 141.73404 19.76353 130.8188 19.76353 121.97049 10.91522 121.97049 0 121.97049-10.91522 130.8188-19.76353 141.73404-19.76353 152.64928-19.76353 161.49759-10.91522 161.49759 0ZM141.73404 0"/>
<text xml:space="preserve" transform="matrix(1 0 -0 1 0 153.311)" font-size="9.9626" font-family="CMR10"><tspan y="-17.472" x="147.028 149.7976">[1</tspan></text>
<text xml:space="preserve" transform="matrix(1 0 -0 1 0 153.311)" font-size="9.9626" font-family="CMMI10" font-style="italic"><tspan y="-17.472" x="154.776">,</tspan></text>
<text xml:space="preserve" transform="matrix(1 0 -0 1 0 153.311)" font-size="9.9626" font-family="CMR10"><tspan y="-17.472" x="159.204">3</tspan></text>
<text xml:space="preserve" transform="matrix(1 0 -0 1 0 153.311)" font-size="9.9626" font-family="CMMI10" font-style="italic"><tspan y="-17.472" x="164.185">,</tspan></text>
<text xml:space="preserve" transform="matrix(1 0 -0 1 0 153.311)" font-size="9.9626" font-family="CMR10"><tspan y="-17.472" x="168.61299 173.59429">2]</tspan></text>
<path transform="matrix(1,0,0,-1,19.963,133.348)" stroke-width=".3985" stroke-linecap="butt" stroke-miterlimit="10" stroke-linejoin="miter" fill="none" stroke="#000000" d="M19.96278 113.38724H121.77124"/>
<path transform="matrix(1,0,0,-1,19.963,133.348)" d="M24.82774 108.40585H45.63913V118.36862H24.82774Z" fill="#ffffff"/>
<text xml:space="preserve" transform="matrix(1 0 -0 1 0 153.311)" font-size="7.9701" font-family="CMR8"><tspan y="-131.356" x="45.786 49.077653">(1</tspan></text>
<text xml:space="preserve" transform="matrix(1 0 -0 1 0 153.311)" font-size="7.9701" font-family="CMMI8" font-style="italic"><tspan y="-131.356" x="53.314">,</tspan></text>
<text xml:space="preserve" transform="matrix(1 0 -0 1 0 153.311)" font-size="7.9701" font-family="CMR8"><tspan y="-131.356" x="57.077 61.309125">3)</tspan></text>
<path transform="matrix(1,0,0,-1,19.963,133.348)" stroke-width=".3985" stroke-linecap="butt" stroke-miterlimit="10" stroke-linejoin="miter" fill="none" stroke="#000000" d="M18.53416 105.97368 123.19986 64.10716"/>
<path transform="matrix(1,0,0,-1,19.963,133.348)" d="M23.82768 94.71259H44.63907V104.67536H23.82768Z" fill="#ffffff"/>
<text xml:space="preserve" transform="matrix(1 0 -0 1 0 153.311)" font-size="7.9701" font-family="CMR8"><tspan y="-117.663" x="44.786 48.077653">(1</tspan></text>
<text xml:space="preserve" transform="matrix(1 0 -0 1 0 153.311)" font-size="7.9701" font-family="CMMI8" font-style="italic"><tspan y="-117.663" x="52.314">,</tspan></text>
<text xml:space="preserve" transform="matrix(1 0 -0 1 0 153.311)" font-size="7.9701" font-family="CMR8"><tspan y="-117.663" x="56.077 60.309125">2)</tspan></text>
<path transform="matrix(1,0,0,-1,19.963,133.348)" stroke-width=".3985" stroke-linecap="butt" stroke-miterlimit="10" stroke-linejoin="miter" fill="none" stroke="#000000" d="M15.58739 100.91719 126.14665 12.46974"/>
<path transform="matrix(1,0,0,-1,19.963,133.348)" d="M21.7649 82.66924H42.57629V92.63201H21.7649Z" fill="#ffffff"/>
<text xml:space="preserve" transform="matrix(1 0 -0 1 0 153.311)" font-size="7.9701" font-family="CMR8"><tspan y="-105.62" x="42.723 46.014654">(2</tspan></text>
<text xml:space="preserve" transform="matrix(1 0 -0 1 0 153.311)" font-size="7.9701" font-family="CMMI8" font-style="italic"><tspan y="-105.62" x="50.251">,</tspan></text>
<text xml:space="preserve" transform="matrix(1 0 -0 1 0 153.311)" font-size="7.9701" font-family="CMR8"><tspan y="-105.62" x="54.015 58.247125">3)</tspan></text>
<path transform="matrix(1,0,0,-1,19.963,133.348)" stroke-width=".3985" stroke-linecap="butt" stroke-miterlimit="10" stroke-linejoin="miter" fill="none" stroke="#000000" d="M18.53416 64.10716 123.19986 105.97368"/>
<path transform="matrix(1,0,0,-1,19.963,133.348)" d="M23.82768 65.40549H44.63907V75.368259H23.82768Z" fill="#ffffff"/>
<text xml:space="preserve" transform="matrix(1 0 -0 1 0 153.311)" font-size="7.9701" font-family="CMR8"><tspan y="-88.356" x="44.786 48.077653">(2</tspan></text>
<text xml:space="preserve" transform="matrix(1 0 -0 1 0 153.311)" font-size="7.9701" font-family="CMMI8" font-style="italic"><tspan y="-88.356" x="52.314">,</tspan></text>
<text xml:space="preserve" transform="matrix(1 0 -0 1 0 153.311)" font-size="7.9701" font-family="CMR8"><tspan y="-88.356" x="56.077 60.309125">3)</tspan></text>
<path transform="matrix(1,0,0,-1,19.963,133.348)" stroke-width=".3985" stroke-linecap="butt" stroke-miterlimit="10" stroke-linejoin="miter" fill="none" stroke="#000000" d="M19.96278 56.69362H121.77124"/>
<path transform="matrix(1,0,0,-1,19.963,133.348)" d="M24.82774 51.71223H45.63913V61.675004H24.82774Z" fill="#ffffff"/>
<text xml:space="preserve" transform="matrix(1 0 -0 1 0 153.311)" font-size="7.9701" font-family="CMR8"><tspan y="-74.663" x="45.786 49.077653">(1</tspan></text>
<text xml:space="preserve" transform="matrix(1 0 -0 1 0 153.311)" font-size="7.9701" font-family="CMMI8" font-style="italic"><tspan y="-74.663" x="53.314">,</tspan></text>
<text xml:space="preserve" transform="matrix(1 0 -0 1 0 153.311)" font-size="7.9701" font-family="CMR8"><tspan y="-74.663" x="57.077 61.309125">3)</tspan></text>
<path transform="matrix(1,0,0,-1,19.963,133.348)" stroke-width=".3985" stroke-linecap="butt" stroke-miterlimit="10" stroke-linejoin="miter" fill="none" stroke="#000000" d="M18.53416 49.28006 123.19986 7.41354"/>
<path transform="matrix(1,0,0,-1,19.963,133.348)" d="M23.82768 38.01897H44.63907V47.981744H23.82768Z" fill="#ffffff"/>
<text xml:space="preserve" transform="matrix(1 0 -0 1 0 153.311)" font-size="7.9701" font-family="CMR8"><tspan y="-60.97" x="44.786 48.077653">(1</tspan></text>
<text xml:space="preserve" transform="matrix(1 0 -0 1 0 153.311)" font-size="7.9701" font-family="CMMI8" font-style="italic"><tspan y="-60.97" x="52.314">,</tspan></text>
<text xml:space="preserve" transform="matrix(1 0 -0 1 0 153.311)" font-size="7.9701" font-family="CMR8"><tspan y="-60.97" x="56.077 60.309125">2)</tspan></text>
<path transform="matrix(1,0,0,-1,19.963,133.348)" stroke-width=".3985" stroke-linecap="butt" stroke-miterlimit="10" stroke-linejoin="miter" fill="none" stroke="#000000" d="M15.58739 12.47003 126.14665 100.9175"/>
<path transform="matrix(1,0,0,-1,19.963,133.348)" d="M21.7649 20.75522H42.57629V30.71799H21.7649Z" fill="#ffffff"/>
<text xml:space="preserve" transform="matrix(1 0 -0 1 0 153.311)" font-size="7.9701" font-family="CMR8"><tspan y="-43.706" x="42.723 46.014654">(1</tspan></text>
<text xml:space="preserve" transform="matrix(1 0 -0 1 0 153.311)" font-size="7.9701" font-family="CMMI8" font-style="italic"><tspan y="-43.706" x="50.251">,</tspan></text>
<text xml:space="preserve" transform="matrix(1 0 -0 1 0 153.311)" font-size="7.9701" font-family="CMR8"><tspan y="-43.706" x="54.015 58.247125">2)</tspan></text>
<path transform="matrix(1,0,0,-1,19.963,133.348)" stroke-width=".3985" stroke-linecap="butt" stroke-miterlimit="10" stroke-linejoin="miter" fill="none" stroke="#000000" d="M18.53416 7.41354 123.19986 49.28006"/>
<path transform="matrix(1,0,0,-1,19.963,133.348)" d="M23.82768 8.71187H44.63907V18.67464H23.82768Z" fill="#ffffff"/>
<text xml:space="preserve" transform="matrix(1 0 -0 1 0 153.311)" font-size="7.9701" font-family="CMR8"><tspan y="-31.663" x="44.786 48.077653">(2</tspan></text>
<text xml:space="preserve" transform="matrix(1 0 -0 1 0 153.311)" font-size="7.9701" font-family="CMMI8" font-style="italic"><tspan y="-31.663" x="52.314">,</tspan></text>
<text xml:space="preserve" transform="matrix(1 0 -0 1 0 153.311)" font-size="7.9701" font-family="CMR8"><tspan y="-31.663" x="56.077 60.309125">3)</tspan></text>
<path transform="matrix(1,0,0,-1,19.963,133.348)" stroke-width=".3985" stroke-linecap="butt" stroke-miterlimit="10" stroke-linejoin="miter" fill="none" stroke="#000000" d="M19.96278 0H121.77124"/>
<path transform="matrix(1,0,0,-1,19.963,133.348)" d="M24.82774-4.98138H45.63913V4.9813907H24.82774Z" fill="#ffffff"/>
<text xml:space="preserve" transform="matrix(1 0 -0 1 0 153.311)" font-size="7.9701" font-family="CMR8"><tspan y="-17.97" x="45.786 49.077653">(1</tspan></text>
<text xml:space="preserve" transform="matrix(1 0 -0 1 0 153.311)" font-size="7.9701" font-family="CMMI8" font-style="italic"><tspan y="-17.97" x="53.314">,</tspan></text>
<text xml:space="preserve" transform="matrix(1 0 -0 1 0 153.311)" font-size="7.9701" font-family="CMR8"><tspan y="-17.97" x="57.077 61.309125">3)</tspan></text>
</svg>
