<?xml version="1.0" encoding="UTF-8" standalone="no"?>
<svg
   xmlns:dc="http://purl.org/dc/elements/1.1/"
   xmlns:cc="http://creativecommons.org/ns#"
   xmlns:rdf="http://www.w3.org/1999/02/22-rdf-syntax-ns#"
   xmlns:svg="http://www.w3.org/2000/svg"
   xmlns="http://www.w3.org/2000/svg"
   viewBox="0 0 390.57867 542.03064"
   height="542.03064"
   width="390.57867"
   xml:space="preserve"
   id="svg2"
   version="1.1"><metadata
     id="metadata8"><rdf:RDF><cc:Work
         rdf:about=""><dc:format>image/svg+xml</dc:format><dc:type
           rdf:resource="http://purl.org/dc/dcmitype/StillImage" /></cc:Work></rdf:RDF></metadata><defs
     id="defs6" /><g
     transform="matrix(1.3333333,0,0,-1.3333333,0,542.03067)"
     id="g10"><g
       transform="translate(151.853,339.71)"
       id="g12"><g
         id="g14"><g
           id="g16"><g
             id="g18"><path
               id="path20"
               style="fill:none;stroke:#000000;stroke-width:0.3985;stroke-linecap:butt;stroke-linejoin:miter;stroke-miterlimit:10;stroke-dasharray:none;stroke-opacity:1"
               d="m -18.42546,0 c 0,5.47948 -4.44186,9.92134 -9.92134,9.92134 -5.47948,0 -9.92134,-4.44186 -9.92134,-9.92134 0,-5.47948 4.44186,-9.92134 9.92134,-9.92134 5.47948,0 9.92134,4.44186 9.92134,9.92134 z" /><g
               transform="translate(-30.063,-3.285)"
               id="g22"><g
                 id="g24"><g
                   transform="translate(-121.79,-336.425)"
                   id="g26"><text
                     id="text30"
                     style="font-variant:normal;font-weight:normal;font-size:9.96259975px;font-family:CMMI10;-inkscape-font-specification:CMMI10;writing-mode:lr-tb;fill:#000000;fill-opacity:1;fill-rule:nonzero;stroke:none"
                     transform="matrix(1,0,0,-1,121.79,336.425)"><tspan
                       id="tspan28"
                       y="0"
                       x="0">i</tspan></text>
<g
                     transform="translate(121.79,336.425)"
                     id="g32" /></g></g><g
                 transform="translate(30.063,3.285)"
                 id="g34" /></g></g><g
             id="g36"><path
               id="path38"
               style="fill:none;stroke:#000000;stroke-width:0.3985;stroke-linecap:butt;stroke-linejoin:miter;stroke-miterlimit:10;stroke-dasharray:none;stroke-opacity:1"
               d="m -75.11908,56.69362 c 0,5.47948 -4.44186,9.92134 -9.92134,9.92134 -5.47948,0 -9.92134,-4.44186 -9.92134,-9.92134 0,-5.47948 4.44186,-9.92136 9.92134,-9.92136 5.47948,0 9.92134,4.44188 9.92134,9.92136 z" /><g
               transform="translate(-85.04,56.693)"
               id="g40"><g
                 id="g42" /><g
                 transform="translate(85.04,-56.693)"
                 id="g44" /></g></g><g
             id="g46"><path
               id="path48"
               style="fill:none;stroke:#000000;stroke-width:0.3985;stroke-linecap:butt;stroke-linejoin:miter;stroke-miterlimit:10;stroke-dasharray:none;stroke-opacity:1"
               d="m -131.8127,0 c 0,5.47948 -4.44186,9.92134 -9.92134,9.92134 -5.47948,0 -9.92134,-4.44186 -9.92134,-9.92134 0,-5.47948 4.44186,-9.92134 9.92134,-9.92134 5.47948,0 9.92134,4.44186 9.92134,9.92134 z" /><g
               transform="translate(-141.733)"
               id="g50"><g
                 id="g52" /><g
                 transform="translate(141.733)"
                 id="g54" /></g></g><g
             id="g56"><path
               id="path58"
               style="fill:none;stroke:#000000;stroke-width:0.3985;stroke-linecap:butt;stroke-linejoin:miter;stroke-miterlimit:10;stroke-dasharray:none;stroke-opacity:1"
               d="m -75.11908,-56.69362 c 0,5.47948 -4.44186,9.92136 -9.92134,9.92136 -5.47948,0 -9.92134,-4.44188 -9.92134,-9.92136 0,-5.47948 4.44186,-9.92134 9.92134,-9.92134 5.47948,0 9.92134,4.44186 9.92134,9.92134 z" /><g
               transform="translate(-85.04,-56.693)"
               id="g60"><g
                 id="g62" /><g
                 transform="translate(85.04,56.693)"
                 id="g64" /></g></g><g
             id="g66"><path
               id="path68"
               style="fill:none;stroke:#000000;stroke-width:0.79701;stroke-linecap:butt;stroke-linejoin:miter;stroke-miterlimit:10;stroke-dasharray:none;stroke-opacity:1"
               d="M -35.50314,7.15634 -74.0571,45.7103" /><g
               transform="matrix(-0.7071,0.7071,-0.7071,-0.7071,-71.8708,43.524)"
               id="g70"><g
                 id="g72"><path
                   id="path74"
                   style="fill:#000000;fill-opacity:1;fill-rule:nonzero;stroke:#000000;stroke-width:0.79701;stroke-linecap:butt;stroke-linejoin:miter;stroke-miterlimit:10;stroke-dasharray:none;stroke-opacity:1"
                   d="M 7.36906,0 1.28693,2.29385 3.2911,0 1.28693,-2.29385 Z" /></g></g></g><g
             id="g76"><path
               id="path78"
               style="fill:none;stroke:#000000;stroke-width:0.79701;stroke-linecap:butt;stroke-linejoin:miter;stroke-miterlimit:10;stroke-dasharray:none;stroke-opacity:1"
               d="M -92.19676,49.53726 -130.75072,10.98332" /><g
               transform="matrix(-0.7071,-0.7071,0.7071,-0.7071,-128.56444,13.1696)"
               id="g80"><g
                 id="g82"><path
                   id="path84"
                   style="fill:#000000;fill-opacity:1;fill-rule:nonzero;stroke:#000000;stroke-width:0.79701;stroke-linecap:butt;stroke-linejoin:miter;stroke-miterlimit:10;stroke-dasharray:none;stroke-opacity:1"
                   d="M 7.36906,0 1.28693,2.29385 3.2911,0 1.28693,-2.29385 Z" /></g></g></g><g
             id="g86"><path
               id="path88"
               style="fill:none;stroke:#000000;stroke-width:0.79701;stroke-linecap:butt;stroke-linejoin:miter;stroke-miterlimit:10;stroke-dasharray:none;stroke-opacity:1"
               d="M -134.5777,-7.15634 -96.02374,-45.7103" /><g
               transform="matrix(0.7071,-0.7071,0.7071,0.7071,-98.21004,-43.524)"
               id="g90"><g
                 id="g92"><path
                   id="path94"
                   style="fill:#000000;fill-opacity:1;fill-rule:nonzero;stroke:#000000;stroke-width:0.79701;stroke-linecap:butt;stroke-linejoin:miter;stroke-miterlimit:10;stroke-dasharray:none;stroke-opacity:1"
                   d="M 7.36906,0 1.28693,2.29385 3.2911,0 1.28693,-2.29385 Z" /></g></g></g><g
             id="g96"><path
               id="path98"
               style="fill:none;stroke:#000000;stroke-width:0.79701;stroke-linecap:butt;stroke-linejoin:miter;stroke-miterlimit:10;stroke-dasharray:none;stroke-opacity:1"
               d="m -77.88408,-49.53726 38.55396,38.55394" /><g
               transform="matrix(0.7071,0.7071,-0.7071,0.7071,-41.51642,-13.1696)"
               id="g100"><g
                 id="g102"><path
                   id="path104"
                   style="fill:#000000;fill-opacity:1;fill-rule:nonzero;stroke:#000000;stroke-width:0.79701;stroke-linecap:butt;stroke-linejoin:miter;stroke-miterlimit:10;stroke-dasharray:none;stroke-opacity:1"
                   d="M 7.36906,0 1.28693,2.29385 3.2911,0 1.28693,-2.29385 Z" /></g></g></g><g
             id="g106"><path
               id="path108"
               style="fill:none;stroke:#000000;stroke-width:0.3985;stroke-linecap:butt;stroke-linejoin:miter;stroke-miterlimit:10;stroke-dasharray:none;stroke-opacity:1"
               d="m 38.26814,0 c 0,5.47948 -4.44186,9.92134 -9.92134,9.92134 -5.47948,0 -9.92134,-4.44186 -9.92134,-9.92134 0,-5.47948 4.44186,-9.92134 9.92134,-9.92134 5.47948,0 9.92134,4.44186 9.92134,9.92134 z" /><g
               transform="translate(26.01,-2.317)"
               id="g110"><g
                 id="g112"><g
                   transform="translate(-177.863,-337.393)"
                   id="g114"><text
                     id="text118"
                     style="font-variant:normal;font-weight:normal;font-size:9.96259975px;font-family:CMMI10;-inkscape-font-specification:CMMI10;writing-mode:lr-tb;fill:#000000;fill-opacity:1;fill-rule:nonzero;stroke:none"
                     transform="matrix(1,0,0,-1,177.863,337.393)"><tspan
                       id="tspan116"
                       y="0"
                       x="0">j</tspan></text>
<g
                     transform="translate(177.863,337.393)"
                     id="g120" /></g></g><g
                 transform="translate(-26.01,2.317)"
                 id="g122" /></g></g><g
             id="g124"><path
               id="path126"
               style="fill:none;stroke:#000000;stroke-width:0.3985;stroke-linecap:butt;stroke-linejoin:miter;stroke-miterlimit:10;stroke-dasharray:none;stroke-opacity:1"
               d="m 77.38689,-53.85875 c 0,5.47948 -4.44189,9.92134 -9.92136,9.92134 -5.47948,0 -9.92134,-4.44186 -9.92134,-9.92134 0,-5.47948 4.44186,-9.92134 9.92134,-9.92134 5.47947,0 9.92136,4.44186 9.92136,9.92134 z" /><g
               transform="translate(67.464,-53.858)"
               id="g128"><g
                 id="g130" /><g
                 transform="translate(-67.464,53.858)"
                 id="g132" /></g></g><g
             id="g134"><path
               id="path136"
               style="fill:none;stroke:#000000;stroke-width:0.3985;stroke-linecap:butt;stroke-linejoin:miter;stroke-miterlimit:10;stroke-dasharray:none;stroke-opacity:1"
               d="m 140.88344,-33.449 c 0,5.47947 -4.44187,9.92134 -9.92134,9.92134 -5.47948,0 -9.92134,-4.44187 -9.92134,-9.92134 0,-5.47948 4.44186,-9.92136 9.92134,-9.92136 5.47947,0 9.92134,4.44188 9.92134,9.92136 z" /><g
               transform="translate(130.96,-33.448)"
               id="g138"><g
                 id="g140" /><g
                 transform="translate(-130.96,33.448)"
                 id="g142" /></g></g><g
             id="g144"><path
               id="path146"
               style="fill:none;stroke:#000000;stroke-width:0.3985;stroke-linecap:butt;stroke-linejoin:miter;stroke-miterlimit:10;stroke-dasharray:none;stroke-opacity:1"
               d="m 140.88344,33.449 c 0,5.47948 -4.44187,9.92136 -9.92134,9.92136 -5.47948,0 -9.92134,-4.44188 -9.92134,-9.92136 0,-5.47947 4.44186,-9.92134 9.92134,-9.92134 5.47947,0 9.92134,4.44187 9.92134,9.92134 z" /><g
               transform="translate(130.96,33.449)"
               id="g148"><g
                 id="g150" /><g
                 transform="translate(-130.96,-33.449)"
                 id="g152" /></g></g><g
             id="g154"><path
               id="path156"
               style="fill:none;stroke:#000000;stroke-width:0.3985;stroke-linecap:butt;stroke-linejoin:miter;stroke-miterlimit:10;stroke-dasharray:none;stroke-opacity:1"
               d="m 77.38689,53.85875 c 0,5.47948 -4.44189,9.92134 -9.92136,9.92134 -5.47948,0 -9.92134,-4.44186 -9.92134,-9.92134 0,-5.47948 4.44186,-9.92134 9.92134,-9.92134 5.47947,0 9.92136,4.44186 9.92136,9.92134 z" /><g
               transform="translate(67.464,53.858)"
               id="g158"><g
                 id="g160" /><g
                 transform="translate(-67.464,-53.858)"
                 id="g162" /></g></g><g
             id="g164"><path
               id="path166"
               style="fill:none;stroke:#000000;stroke-width:0.79701;stroke-linecap:butt;stroke-linejoin:miter;stroke-miterlimit:10;stroke-dasharray:none;stroke-opacity:1"
               d="M 34.29411,-8.18837 58.33778,-41.2915" /><g
               transform="matrix(0.58765,-0.80908,0.80908,0.58765,56.52086,-38.78992)"
               id="g168"><g
                 id="g170"><path
                   id="path172"
                   style="fill:#000000;fill-opacity:1;fill-rule:nonzero;stroke:#000000;stroke-width:0.79701;stroke-linecap:butt;stroke-linejoin:miter;stroke-miterlimit:10;stroke-dasharray:none;stroke-opacity:1"
                   d="M 7.36906,0 1.28693,2.29385 3.2911,0 1.28693,-2.29385 Z" /></g></g></g><g
             id="g174"><path
               id="path176"
               style="fill:none;stroke:#000000;stroke-width:0.79701;stroke-linecap:butt;stroke-linejoin:miter;stroke-miterlimit:10;stroke-dasharray:none;stroke-opacity:1"
               d="m 77.1003,-50.76186 39.0747,12.55985" /><g
               transform="matrix(0.952,0.306,-0.306,0.952,113.23155,-39.14813)"
               id="g178"><g
                 id="g180"><path
                   id="path182"
                   style="fill:#000000;fill-opacity:1;fill-rule:nonzero;stroke:#000000;stroke-width:0.79701;stroke-linecap:butt;stroke-linejoin:miter;stroke-miterlimit:10;stroke-dasharray:none;stroke-opacity:1"
                   d="M 7.36906,0 1.28693,2.29385 3.2911,0 1.28693,-2.29385 Z" /></g></g></g><g
             id="g184"><path
               id="path186"
               style="fill:none;stroke:#000000;stroke-width:0.79701;stroke-linecap:butt;stroke-linejoin:miter;stroke-miterlimit:10;stroke-dasharray:none;stroke-opacity:1"
               d="M 130.9621,-23.32841 V 17.91626" /><g
               transform="rotate(90,58.068855,72.893245)"
               id="g188"><g
                 id="g190"><path
                   id="path192"
                   style="fill:#000000;fill-opacity:1;fill-rule:nonzero;stroke:#000000;stroke-width:0.79701;stroke-linecap:butt;stroke-linejoin:miter;stroke-miterlimit:10;stroke-dasharray:none;stroke-opacity:1"
                   d="M 7.36906,0 1.28693,2.29385 3.2911,0 1.28693,-2.29385 Z" /></g></g></g><g
             id="g194"><path
               id="path196"
               style="fill:none;stroke:#000000;stroke-width:0.79701;stroke-linecap:butt;stroke-linejoin:miter;stroke-miterlimit:10;stroke-dasharray:none;stroke-opacity:1"
               d="M 121.32735,36.5459 82.25264,49.10574" /><g
               transform="matrix(-0.952,0.306,-0.306,-0.952,85.19609,48.15964)"
               id="g198"><g
                 id="g200"><path
                   id="path202"
                   style="fill:#000000;fill-opacity:1;fill-rule:nonzero;stroke:#000000;stroke-width:0.79701;stroke-linecap:butt;stroke-linejoin:miter;stroke-miterlimit:10;stroke-dasharray:none;stroke-opacity:1"
                   d="M 7.36906,0 1.28693,2.29385 3.2911,0 1.28693,-2.29385 Z" /></g></g></g><g
             id="g204"><path
               id="path206"
               style="fill:none;stroke:#000000;stroke-width:0.79701;stroke-linecap:butt;stroke-linejoin:miter;stroke-miterlimit:10;stroke-dasharray:none;stroke-opacity:1"
               d="M 61.51822,45.67036 37.47456,12.56725" /><g
               transform="matrix(-0.58765,-0.80908,0.80908,-0.58765,39.29149,15.06882)"
               id="g208"><g
                 id="g210"><path
                   id="path212"
                   style="fill:#000000;fill-opacity:1;fill-rule:nonzero;stroke:#000000;stroke-width:0.79701;stroke-linecap:butt;stroke-linejoin:miter;stroke-miterlimit:10;stroke-dasharray:none;stroke-opacity:1"
                   d="M 7.36906,0 1.28693,2.29385 3.2911,0 1.28693,-2.29385 Z" /></g></g></g><g
             id="g214"><g
               transform="translate(-111.471,-107.681)"
               id="g216"><g
                 id="g218"><g
                   transform="translate(-40.382,-232.029)"
                   id="g220"><text
                     id="text226"
                     style="font-variant:normal;font-weight:normal;font-size:9.96259975px;font-family:CMR10;-inkscape-font-specification:CMR10;writing-mode:lr-tb;fill:#000000;fill-opacity:1;fill-rule:nonzero;stroke:none"
                     transform="matrix(1,0,0,-1,40.382,243.984)"><tspan
                       id="tspan222"
                       y="0"
                       x="0 6.5035853 9.2711954 13.173546 17.102795 24.294796 29.830017 32.597626 37.578926 42.560226 46.462578 51.443878 59.745712 66.946678 74.14167 81.057709 89.356552 94.891769 97.659386 101.56173 105.98911 110.41649 114.29095 118.71833 127.58105 132.00844 137.26669 141.69408 144.46169 148.88907 156.13586 161.11716 167.47928 171.40852 174.17613 178.60352 183.0309 190.28766 198.5865 203.56779 209.10301 217.95578">Firstdiagram:Twodirectedcyclesofsizes4and5</tspan><tspan
                       id="tspan224"
                       y="11.955"
                       x="10.476 17.67099 20.438601 24.313055 33.165821 38.14513 42.58247 46.484821 50.349316 53.116924 57.554268 61.981647">withvertices</tspan></text>
<text
                     id="text230"
                     style="font-variant:normal;font-weight:normal;font-size:9.96259975px;font-family:CMMI10;-inkscape-font-specification:CMMI10;writing-mode:lr-tb;fill:#000000;fill-opacity:1;fill-rule:nonzero;stroke:none"
                     transform="matrix(1,0,0,-1,109.61,232.029)"><tspan
                       id="tspan228"
                       y="0"
                       x="0">i</tspan></text>
<text
                     id="text234"
                     style="font-variant:normal;font-weight:normal;font-size:9.96259975px;font-family:CMR10;-inkscape-font-specification:CMR10;writing-mode:lr-tb;fill:#000000;fill-opacity:1;fill-rule:nonzero;stroke:none"
                     transform="matrix(1,0,0,-1,116.363,232.029)"><tspan
                       id="tspan232"
                       y="0"
                       x="0 4.9812999 10.516521">and</tspan></text>
<text
                     id="text238"
                     style="font-variant:normal;font-weight:normal;font-size:9.96259975px;font-family:CMMI10;-inkscape-font-specification:CMMI10;writing-mode:lr-tb;fill:#000000;fill-opacity:1;fill-rule:nonzero;stroke:none"
                     transform="matrix(1,0,0,-1,135.735,232.029)"><tspan
                       id="tspan236"
                       y="0"
                       x="0">j</tspan></text>
<text
                     id="text242"
                     style="font-variant:normal;font-weight:normal;font-size:9.96259975px;font-family:CMR10;-inkscape-font-specification:CMR10;writing-mode:lr-tb;fill:#000000;fill-opacity:1;fill-rule:nonzero;stroke:none"
                     transform="matrix(1,0,0,-1,143.729,232.029)"><tspan
                       id="tspan240"
                       y="0"
                       x="0 4.9812999 12.173301 16.047756 21.582977 29.337864 33.267113 38.248413 46.550247 54.295174 59.274483 63.701862 67.60421 71.478668 74.246277 78.673653 83.654953 89.750076 92.517685 96.945061 101.92437 106.35175">atthesameverticallevel</tspan></text>
<g
                     transform="translate(40.382,232.029)"
                     id="g244" /></g></g><g
                 transform="translate(111.471,107.681)"
                 id="g246" /></g></g><g
             id="g248"><g
               id="g250"><path
                 id="path252"
                 style="fill:none;stroke:#000000;stroke-width:0.3985;stroke-linecap:butt;stroke-linejoin:miter;stroke-miterlimit:10;stroke-dasharray:none;stroke-opacity:1"
                 d="m -18.42546,-226.77457 c 0,5.47948 -4.44186,9.92134 -9.92134,9.92134 -5.47948,0 -9.92134,-4.44186 -9.92134,-9.92134 0,-5.47947 4.44186,-9.92133 9.92134,-9.92133 5.47948,0 9.92134,4.44186 9.92134,9.92133 z" /><g
                 transform="translate(-30.063,-230.057)"
                 id="g254"><g
                   id="g256"><g
                     transform="translate(-121.79,-109.653)"
                     id="g258"><text
                       id="text262"
                       style="font-variant:normal;font-weight:normal;font-size:9.96259975px;font-family:CMMI10;-inkscape-font-specification:CMMI10;writing-mode:lr-tb;fill:#000000;fill-opacity:1;fill-rule:nonzero;stroke:none"
                       transform="matrix(1,0,0,-1,121.79,109.653)"><tspan
                         id="tspan260"
                         y="0"
                         x="0">i</tspan></text>
<g
                       transform="translate(121.79,109.653)"
                       id="g264" /></g></g><g
                   transform="translate(30.063,230.057)"
                   id="g266" /></g></g><g
               id="g268"><path
                 id="path270"
                 style="fill:none;stroke:#000000;stroke-width:0.3985;stroke-linecap:butt;stroke-linejoin:miter;stroke-miterlimit:10;stroke-dasharray:none;stroke-opacity:1"
                 d="m -75.11908,-170.08095 c 0,5.47948 -4.44186,9.92135 -9.92134,9.92135 -5.47948,0 -9.92134,-4.44187 -9.92134,-9.92135 0,-5.47947 4.44186,-9.92134 9.92134,-9.92134 5.47948,0 9.92134,4.44187 9.92134,9.92134 z" /><g
                 transform="translate(-85.04,-170.079)"
                 id="g272"><g
                   id="g274" /><g
                   transform="translate(85.04,170.079)"
                   id="g276" /></g></g><g
               id="g278"><path
                 id="path280"
                 style="fill:none;stroke:#000000;stroke-width:0.3985;stroke-linecap:butt;stroke-linejoin:miter;stroke-miterlimit:10;stroke-dasharray:none;stroke-opacity:1"
                 d="m -131.8127,-226.77457 c 0,5.47948 -4.44186,9.92134 -9.92134,9.92134 -5.47948,0 -9.92134,-4.44186 -9.92134,-9.92134 0,-5.47947 4.44186,-9.92133 9.92134,-9.92133 5.47948,0 9.92134,4.44186 9.92134,9.92133 z" /><g
                 transform="translate(-141.733,-226.772)"
                 id="g282"><g
                   id="g284" /><g
                   transform="translate(141.733,226.772)"
                   id="g286" /></g></g><g
               id="g288"><path
                 id="path290"
                 style="fill:none;stroke:#000000;stroke-width:0.3985;stroke-linecap:butt;stroke-linejoin:miter;stroke-miterlimit:10;stroke-dasharray:none;stroke-opacity:1"
                 d="m -75.11908,-283.46819 c 0,5.47948 -4.44186,9.92135 -9.92134,9.92135 -5.47948,0 -9.92134,-4.44187 -9.92134,-9.92135 0,-5.47947 4.44186,-9.92134 9.92134,-9.92134 5.47948,0 9.92134,4.44187 9.92134,9.92134 z" /><g
                 transform="translate(-85.04,-283.465)"
                 id="g292"><g
                   id="g294" /><g
                   transform="translate(85.04,283.465)"
                   id="g296" /></g></g><g
               id="g298"><path
                 id="path300"
                 style="fill:none;stroke:#000000;stroke-width:0.3985;stroke-linecap:butt;stroke-linejoin:miter;stroke-miterlimit:10;stroke-dasharray:none;stroke-opacity:1"
                 d="m 38.26814,-226.77457 c 0,5.47948 -4.44186,9.92134 -9.92134,9.92134 -5.47948,0 -9.92134,-4.44186 -9.92134,-9.92134 0,-5.47947 4.44186,-9.92133 9.92134,-9.92133 5.47948,0 9.92134,4.44186 9.92134,9.92133 z" /><g
                 transform="translate(26.01,-229.088)"
                 id="g302"><g
                   id="g304"><g
                     transform="translate(-177.863,-110.622)"
                     id="g306"><text
                       id="text310"
                       style="font-variant:normal;font-weight:normal;font-size:9.96259975px;font-family:CMMI10;-inkscape-font-specification:CMMI10;writing-mode:lr-tb;fill:#000000;fill-opacity:1;fill-rule:nonzero;stroke:none"
                       transform="matrix(1,0,0,-1,177.863,110.622)"><tspan
                         id="tspan308"
                         y="0"
                         x="0">j</tspan></text>
<g
                       transform="translate(177.863,110.622)"
                       id="g312" /></g></g><g
                   transform="translate(-26.01,229.088)"
                   id="g314" /></g></g><g
               id="g316"><path
                 id="path318"
                 style="fill:none;stroke:#000000;stroke-width:0.3985;stroke-linecap:butt;stroke-linejoin:miter;stroke-miterlimit:10;stroke-dasharray:none;stroke-opacity:1"
                 d="m 77.38689,-280.63332 c 0,5.47948 -4.44189,9.92134 -9.92136,9.92134 -5.47948,0 -9.92134,-4.44186 -9.92134,-9.92134 0,-5.47948 4.44186,-9.92134 9.92134,-9.92134 5.47947,0 9.92136,4.44186 9.92136,9.92134 z" /><g
                 transform="translate(67.464,-280.63)"
                 id="g320"><g
                   id="g322" /><g
                   transform="translate(-67.464,280.63)"
                   id="g324" /></g></g><g
               id="g326"><path
                 id="path328"
                 style="fill:none;stroke:#000000;stroke-width:0.3985;stroke-linecap:butt;stroke-linejoin:miter;stroke-miterlimit:10;stroke-dasharray:none;stroke-opacity:1"
                 d="m 140.88344,-260.22359 c 0,5.47948 -4.44187,9.92134 -9.92134,9.92134 -5.47948,0 -9.92134,-4.44186 -9.92134,-9.92134 0,-5.47947 4.44186,-9.92134 9.92134,-9.92134 5.47947,0 9.92134,4.44187 9.92134,9.92134 z" /><g
                 transform="translate(130.96,-260.22)"
                 id="g330"><g
                   id="g332" /><g
                   transform="translate(-130.96,260.22)"
                   id="g334" /></g></g><g
               id="g336"><path
                 id="path338"
                 style="fill:none;stroke:#000000;stroke-width:0.3985;stroke-linecap:butt;stroke-linejoin:miter;stroke-miterlimit:10;stroke-dasharray:none;stroke-opacity:1"
                 d="m 140.88344,-193.32555 c 0,5.47948 -4.44187,9.92135 -9.92134,9.92135 -5.47948,0 -9.92134,-4.44187 -9.92134,-9.92135 0,-5.47947 4.44186,-9.92134 9.92134,-9.92134 5.47947,0 9.92134,4.44187 9.92134,9.92134 z" /><g
                 transform="translate(130.96,-193.323)"
                 id="g340"><g
                   id="g342" /><g
                   transform="translate(-130.96,193.323)"
                   id="g344" /></g></g><g
               id="g346"><path
                 id="path348"
                 style="fill:none;stroke:#000000;stroke-width:0.3985;stroke-linecap:butt;stroke-linejoin:miter;stroke-miterlimit:10;stroke-dasharray:none;stroke-opacity:1"
                 d="m 77.38689,-172.9158 c 0,5.47947 -4.44189,9.92134 -9.92136,9.92134 -5.47948,0 -9.92134,-4.44187 -9.92134,-9.92134 0,-5.47948 4.44186,-9.92136 9.92134,-9.92136 5.47947,0 9.92136,4.44188 9.92136,9.92136 z" /><g
                 transform="translate(67.464,-172.914)"
                 id="g350"><g
                   id="g352" /><g
                   transform="translate(-67.464,172.914)"
                   id="g354" /></g></g><g
               id="g356"><path
                 id="path358"
                 style="fill:none;stroke:#000000;stroke-width:0.79701;stroke-linecap:butt;stroke-linejoin:miter;stroke-miterlimit:10;stroke-dasharray:none;stroke-opacity:1"
                 d="m -35.50314,-219.61821 -38.55396,38.55394" /><g
                 transform="matrix(-0.7071,0.7071,-0.7071,-0.7071,-71.8708,-183.25055)"
                 id="g360"><g
                   id="g362"><path
                     id="path364"
                     style="fill:#000000;fill-opacity:1;fill-rule:nonzero;stroke:#000000;stroke-width:0.79701;stroke-linecap:butt;stroke-linejoin:miter;stroke-miterlimit:10;stroke-dasharray:none;stroke-opacity:1"
                     d="M 7.36906,0 1.28693,2.29385 3.2911,0 1.28693,-2.29385 Z" /></g></g></g><g
               id="g366"><path
                 id="path368"
                 style="fill:none;stroke:#000000;stroke-width:0.79701;stroke-linecap:butt;stroke-linejoin:miter;stroke-miterlimit:10;stroke-dasharray:none;stroke-opacity:1"
                 d="m -92.19676,-177.23729 -38.55396,-38.55395" /><g
                 transform="matrix(-0.7071,-0.7071,0.7071,-0.7071,-128.56444,-213.60495)"
                 id="g370"><g
                   id="g372"><path
                     id="path374"
                     style="fill:#000000;fill-opacity:1;fill-rule:nonzero;stroke:#000000;stroke-width:0.79701;stroke-linecap:butt;stroke-linejoin:miter;stroke-miterlimit:10;stroke-dasharray:none;stroke-opacity:1"
                     d="M 7.36906,0 1.28693,2.29385 3.2911,0 1.28693,-2.29385 Z" /></g></g></g><g
               id="g376"><path
                 id="path378"
                 style="fill:none;stroke:#000000;stroke-width:0.79701;stroke-linecap:butt;stroke-linejoin:miter;stroke-miterlimit:10;stroke-dasharray:none;stroke-opacity:1"
                 d="m -134.5777,-233.93091 38.55396,-38.55395" /><g
                 transform="matrix(0.7071,-0.7071,0.7071,0.7071,-98.21004,-270.29857)"
                 id="g380"><g
                   id="g382"><path
                     id="path384"
                     style="fill:#000000;fill-opacity:1;fill-rule:nonzero;stroke:#000000;stroke-width:0.79701;stroke-linecap:butt;stroke-linejoin:miter;stroke-miterlimit:10;stroke-dasharray:none;stroke-opacity:1"
                     d="M 7.36906,0 1.28693,2.29385 3.2911,0 1.28693,-2.29385 Z" /></g></g></g><g
               id="g386"><path
                 id="path388"
                 style="fill:none;stroke:#000000;stroke-width:0.79701;stroke-linecap:butt;stroke-linejoin:miter;stroke-miterlimit:10;stroke-dasharray:none;stroke-opacity:1"
                 d="m 34.29411,-234.96294 24.04367,-33.10313" /><g
                 transform="matrix(0.58765,-0.80908,0.80908,0.58765,56.52086,-265.5645)"
                 id="g390"><g
                   id="g392"><path
                     id="path394"
                     style="fill:#000000;fill-opacity:1;fill-rule:nonzero;stroke:#000000;stroke-width:0.79701;stroke-linecap:butt;stroke-linejoin:miter;stroke-miterlimit:10;stroke-dasharray:none;stroke-opacity:1"
                     d="M 7.36906,0 1.28693,2.29385 3.2911,0 1.28693,-2.29385 Z" /></g></g></g><g
               id="g396"><path
                 id="path398"
                 style="fill:none;stroke:#000000;stroke-width:0.79701;stroke-linecap:butt;stroke-linejoin:miter;stroke-miterlimit:10;stroke-dasharray:none;stroke-opacity:1"
                 d="m 77.1003,-277.53644 39.0747,12.55984" /><g
                 transform="matrix(0.952,0.306,-0.306,0.952,113.23155,-265.9227)"
                 id="g400"><g
                   id="g402"><path
                     id="path404"
                     style="fill:#000000;fill-opacity:1;fill-rule:nonzero;stroke:#000000;stroke-width:0.79701;stroke-linecap:butt;stroke-linejoin:miter;stroke-miterlimit:10;stroke-dasharray:none;stroke-opacity:1"
                     d="M 7.36906,0 1.28693,2.29385 3.2911,0 1.28693,-2.29385 Z" /></g></g></g><g
               id="g406"><path
                 id="path408"
                 style="fill:none;stroke:#000000;stroke-width:0.79701;stroke-linecap:butt;stroke-linejoin:miter;stroke-miterlimit:10;stroke-dasharray:none;stroke-opacity:1"
                 d="m 130.9621,-250.10298 v 41.24468" /><g
                 transform="rotate(90,171.45613,-40.49403)"
                 id="g410"><g
                   id="g412"><path
                     id="path414"
                     style="fill:#000000;fill-opacity:1;fill-rule:nonzero;stroke:#000000;stroke-width:0.79701;stroke-linecap:butt;stroke-linejoin:miter;stroke-miterlimit:10;stroke-dasharray:none;stroke-opacity:1"
                     d="M 7.36906,0 1.28693,2.29385 3.2911,0 1.28693,-2.29385 Z" /></g></g></g><g
               id="g416"><path
                 id="path418"
                 style="fill:none;stroke:#000000;stroke-width:0.79701;stroke-linecap:butt;stroke-linejoin:miter;stroke-miterlimit:10;stroke-dasharray:none;stroke-opacity:1"
                 d="m 121.32735,-190.22865 -39.07471,12.55984" /><g
                 transform="matrix(-0.952,0.306,-0.306,-0.952,85.19609,-178.61493)"
                 id="g420"><g
                   id="g422"><path
                     id="path424"
                     style="fill:#000000;fill-opacity:1;fill-rule:nonzero;stroke:#000000;stroke-width:0.79701;stroke-linecap:butt;stroke-linejoin:miter;stroke-miterlimit:10;stroke-dasharray:none;stroke-opacity:1"
                     d="M 7.36906,0 1.28693,2.29385 3.2911,0 1.28693,-2.29385 Z" /></g></g></g><g
               id="g426"><path
                 id="path428"
                 style="fill:none;stroke:#000000;stroke-width:0.79701;stroke-linecap:butt;stroke-linejoin:miter;stroke-miterlimit:10;stroke-dasharray:none;stroke-opacity:1"
                 d="m -74.92416,-283.19176 c 42.42486,1.15874 70.59784,15.24584 93.61601,44.25096" /><g
                 transform="matrix(0.6216,0.78326,-0.78326,0.6216,16.76994,-241.36255)"
                 id="g430"><g
                   id="g432"><path
                     id="path434"
                     style="fill:#000000;fill-opacity:1;fill-rule:nonzero;stroke:#000000;stroke-width:0.79701;stroke-linecap:butt;stroke-linejoin:miter;stroke-miterlimit:10;stroke-dasharray:none;stroke-opacity:1"
                     d="M 7.36906,0 1.28693,2.29385 3.2911,0 1.28693,-2.29385 Z" /></g></g></g><g
               id="g436"><path
                 id="path438"
                 style="fill:none;stroke:#000000;stroke-width:0.79701;stroke-linecap:butt;stroke-linejoin:miter;stroke-miterlimit:10;stroke-dasharray:none;stroke-opacity:1"
                 d="m 57.3746,-173.68176 c -35.61009,-2.70337 -59.00328,-15.85344 -76.66713,-40.47292" /><g
                 transform="matrix(-0.58292,-0.81247,0.81247,-0.58292,-17.49022,-211.64264)"
                 id="g440"><g
                   id="g442"><path
                     id="path444"
                     style="fill:#000000;fill-opacity:1;fill-rule:nonzero;stroke:#000000;stroke-width:0.79701;stroke-linecap:butt;stroke-linejoin:miter;stroke-miterlimit:10;stroke-dasharray:none;stroke-opacity:1"
                     d="M 7.36906,0 1.28693,2.29385 3.2911,0 1.28693,-2.29385 Z" /></g></g></g><g
               id="g446"><g
                 transform="translate(-93.274,-334.452)"
                 id="g448"><g
                   id="g450"><g
                     transform="translate(-58.579,-5.258)"
                     id="g452"><text
                       id="text456"
                       style="font-variant:normal;font-weight:normal;font-size:9.96259975px;font-family:CMR10;-inkscape-font-specification:CMR10;writing-mode:lr-tb;fill:#000000;fill-opacity:1;fill-rule:nonzero;stroke:none"
                       transform="matrix(1,0,0,-1,58.579,17.213)"><tspan
                         id="tspan454"
                         y="0"
                         x="0 5.5352206 9.9625998 14.389979 19.371279 24.9065 33.759266 39.294487 42.062096 47.043396 52.024696 55.927048 60.908348 69.210182 76.411148 83.191696 88.726913 93.708214 101.45314 105.3276">Seconddiagram:Edgeto</tspan></text>
<text
                       id="text460"
                       style="font-variant:normal;font-weight:normal;font-size:9.96259975px;font-family:CMMI10;-inkscape-font-specification:CMMI10;writing-mode:lr-tb;fill:#000000;fill-opacity:1;fill-rule:nonzero;stroke:none"
                       transform="matrix(1,0,0,-1,172.209,17.213)"><tspan
                         id="tspan458"
                         y="0"
                         x="0">i</tspan></text>
<text
                       id="text464"
                       style="font-variant:normal;font-weight:normal;font-size:9.96259975px;font-family:CMR10;-inkscape-font-specification:CMR10;writing-mode:lr-tb;fill:#000000;fill-opacity:1;fill-rule:nonzero;stroke:none"
                       transform="matrix(1,0,0,-1,178.962,17.213)"><tspan
                         id="tspan462"
                         y="0"
                         x="0 3.9023504 8.32973 13.86495 16.632561 20.53491 24.96229 29.389669 33.264126 37.691505 46.54427 50.418728">redirectedto</tspan></text>
<text
                       id="text468"
                       style="font-variant:normal;font-weight:normal;font-size:9.96259975px;font-family:CMMI10;-inkscape-font-specification:CMMI10;writing-mode:lr-tb;fill:#000000;fill-opacity:1;fill-rule:nonzero;stroke:none"
                       transform="matrix(1,0,0,-1,237.686,17.213)"><tspan
                         id="tspan466"
                         y="0"
                         x="0">j</tspan></text>
<text
                       id="text474"
                       style="font-variant:normal;font-weight:normal;font-size:9.96259975px;font-family:CMR10;-inkscape-font-specification:CMR10;writing-mode:lr-tb;fill:#000000;fill-opacity:1;fill-rule:nonzero;stroke:none"
                       transform="matrix(1,0,0,-1,242.359,17.213)"><tspan
                         id="tspan470"
                         y="0"
                         x="0">,</tspan><tspan
                         id="tspan472"
                         y="11.955"
                         x="-152.702 -147.7207 -142.18549 -133.33272 -128.90533 -123.37011 -118.38882 -110.63393 -106.75947">andedgeto</tspan></text>
<text
                       id="text478"
                       style="font-variant:normal;font-weight:normal;font-size:9.96259975px;font-family:CMMI10;-inkscape-font-specification:CMMI10;writing-mode:lr-tb;fill:#000000;fill-opacity:1;fill-rule:nonzero;stroke:none"
                       transform="matrix(1,0,0,-1,143.898,5.258)"><tspan
                         id="tspan476"
                         y="0"
                         x="0">j</tspan></text>
<text
                       id="text482"
                       style="font-variant:normal;font-weight:normal;font-size:9.96259975px;font-family:CMR10;-inkscape-font-specification:CMR10;writing-mode:lr-tb;fill:#000000;fill-opacity:1;fill-rule:nonzero;stroke:none"
                       transform="matrix(1,0,0,-1,151.892,5.258)"><tspan
                         id="tspan480"
                         y="0"
                         x="0 3.9023504 8.32973 13.86495 16.632561 20.53491 24.96229 29.389669 33.264126 37.691505 46.54427 50.418728">redirectedto</tspan></text>
<text
                       id="text486"
                       style="font-variant:normal;font-weight:normal;font-size:9.96259975px;font-family:CMMI10;-inkscape-font-specification:CMMI10;writing-mode:lr-tb;fill:#000000;fill-opacity:1;fill-rule:nonzero;stroke:none"
                       transform="matrix(1,0,0,-1,210.616,5.258)"><tspan
                         id="tspan484"
                         y="0"
                         x="0">i</tspan></text>
<g
                       transform="translate(58.579,5.258)"
                       id="g488" /></g></g><g
                   transform="translate(93.274,334.452)"
                   id="g490" /></g></g></g></g></g></g></g></svg>